<svg width="524" height="368" viewBox="-512 -384 1024 768" xmlns="http://www.w3.org/2000/svg">
  <style>
    svg,
    html,
    body {
      background-color: #9745f5;
    }

    #looom {
      --version: 2;
    }

    #t0 {
      --visible: 1;
      --timeOffset: 6;
      --speed: 12;
      --bookmarkIndex: -1;
      --latched: 0;
      --playMode: 0;
      --masked: 0;
      --blendMode: 0;
      --pressureEnabled: 0;
      stroke: #000000;
      stroke-opacity: 1;
      fill-opacity: 0;
      stroke-width: 10;
      stroke-linecap: round;
      stroke-linejoin: round;
    }

    @keyframes t0 {
      0% {
        opacity: 1;
      }

      4.166667% {
        opacity: 0;
      }
    }

    #t0 .frame {
      animation: t0 2s calc(var(--index) * 0.08333334s) steps(1) infinite;
    }
  </style>
  <g id="w0" transform="translate(159.00 41.25) scale(1.35 1.35) rotate(-342.65)" class="weave">
    <g id="t0" transform="translate(189.74 -61.70) scale(1.06 1.06) rotate(-2.25)" class="thread">
      <g id="f0" style="--index:0; opacity:1;" class="frame">
        <path d="M-96.43,16.54" />
        <path d="M-91.61,10.98L-87.89,3.07L-72.74,-15.83L-61.90,-26.01L-51.63,-38.25L-32.22,-55.66L-4.13,-77.56L9.07,-86.30L26.82,-99.99L64.10,-122.36L85.72,-132.26" />
      </g>
      <g id="f1" style="--index:1; opacity:0;" class="frame">
        <path d="M-492.05,219.80L-494.52,219.04" />
        <path d="M-494.52,219.04L-495.25,214.79L-493.72,214.22L-493.35,217.26L-494.52,219.04" />
        <path d="M-494.52,219.04L-496.12,219.54L-496.85,217.97L-497.08,215.77L-495.48,213.10" />
      </g>
      <g id="f2" style="--index:2; opacity:0;" class="frame">
        <path d="M-492.33,214.93L-493.75,216.56L-495.48,204.44L-493.48,172.02" />
      </g>
      <g id="f3" style="--index:3; opacity:0;" class="frame">
        <path d="M-491.33,213.12L-492.65,209.73L-494.56,191.49L-494.74,177.39L-487.21,130.82L-486.65,109.13L-485.59,101.22L-483.69,94.93" />
      </g>
      <g id="f4" style="--index:4; opacity:0;" class="frame">
        <path d="M-494.27,212.60L-494.47,209.84L-488.09,163.42L-484.59,110.63L-476.29,18.73L-478.09,7.04L-480.89,0.49L-484.94,-3.11L-493.56,-4.69L-495.84,-3.97L-497.87,-1.80L-502.42,6.21L-504.54,23.43" />
      </g>
      <g id="f5" style="--index:5; opacity:0;" class="frame">
        <path d="M-488.99,208.62L-493.00,213.59L-494.19,194.43L-493.33,174.28L-487.22,127.38" />
        <path d="M-487.22,127.38L-483.22,94.69L-480.39,43.31L-482.64,1.98L-483.66,-5.36L-485.15,-9.05L-487.67,-10.09L-491.05,-9.90L-494.69,-7.93L-499.59,-3.99L-501.58,-1.07L-505.97,10.38L-509.16,27.94L-509.06,36.69L-507.50,44.81L-500.39,70.83L-487.22,127.38" />
        <path d="M-487.22,127.38L-478.93,167.03L-476.75,173.73L-472.81,183.08L-467.36,187.54" />
      </g>
      <g id="f6" style="--index:6; opacity:0;" class="frame">
        <path d="M-481.05,201.99L-479.67,187.07" />
        <path d="M-479.67,187.07L-478.70,153.35L-478.77,51.56L-479.76,24.16L-482.48,-0.57L-485.06,-8.04L-489.13,-11.14L-494.57,-10.86L-499.80,-5.19L-508.59,13.52L-511.22,23.42L-512.92,47.79L-509.42,77.79L-503.62,104.95L-487.37,167.14L-479.67,187.07" />
        <path d="M-479.67,187.07L-474.03,195.22L-471.56,197.50L-469.34,198.15L-467.07,197.73L-462.60,191.85L-460.69,186.36L-458.96,177.43L-456.81,127.09L-455.29,118.78L-448.73,98.23L-446.56,94.00L-444.50,91.90L-435.68,88.80L-433.51,88.95L-431.67,91.72L-430.31,96.70L-427.87,131.73L-424.13,155.93L-421.72,162.84L-418.41,167.84L-410.84,171.52" />
        <path d="M-410.84,171.52L-408.25,171.61L-408.10,171.00L-410.84,171.52" />
        <path d="M-410.84,171.52L-410.99,172.88" />
      </g>
      <g id="f7" style="--index:7; opacity:0;" class="frame">
        <path d="M-480.20,209.22L-482.90,210.93L-481.46,174.20" />
        <path d="M-481.46,174.20L-477.84,112.21L-478.83,81.49L-477.63,39.92L-478.71,13.07L-481.18,-8.33L-484.89,-21.98L-487.49,-25.51L-490.72,-27.63L-494.08,-28.33L-497.04,-27.45L-499.90,-23.06L-510.42,11.01L-511.94,20.71L-512.44,30.50L-511.98,42.89L-505.89,81.99L-490.85,139.57L-484.42,167.12L-481.46,174.20" />
        <path d="M-481.46,174.20L-475.61,183.03L-473.06,184.69L-466.41,187.21L-464.04,187.35L-461.76,186.50L-459.67,182.90L-454.70,161.17L-451.29,131.49L-443.90,94.42L-441.59,87.88L-438.42,82.20L-434.77,78.53L-430.90,76.87L-427.08,76.71L-423.66,78.78L-420.61,83.65L-415.85,96.08L-411.89,121.11L-409.63,146.13L-406.58,157.61L-402.11,166.29L-399.53,169.27L-396.68,171.12L-390.89,171.91L-388.22,170.89L-383.16,166.16L-374.80,153.48" />
        <path d="M-374.80,153.48L-372.92,148.94L-371.67,142.17L-371.55,128.19L-372.74,120.20L-376.92,105.73L-381.18,94.94L-383.54,92.79L-385.00,95.04L-385.66,103.76L-384.49,124.81L-383.48,131.03L-378.26,146.04L-374.80,153.48" />
        <path d="M-374.80,153.48L-373.66,155.03L-364.19,161.78L-363.31,163.44" />
      </g>
      <g id="f8" style="--index:8; opacity:0;" class="frame">
        <path d="M-482.95,210.55L-483.42,204.90L-479.49,170.62" />
        <path d="M-479.49,170.62L-477.10,131.61L-475.87,81.17L-472.59,45.00L-472.87,9.36L-475.02,-9.22L-476.96,-15.23L-479.72,-20.09L-483.71,-23.30L-488.93,-24.13L-494.68,-22.29L-499.21,-18.29L-502.33,-13.72L-504.70,-7.26L-505.70,3.40L-505.74,15.89L-504.07,62.63L-503.10,77.47L-498.09,107.42L-488.39,145.66L-481.89,165.85L-479.49,170.62" />
        <path d="M-479.49,170.62L-465.79,200.03L-463.25,202.32L-460.52,202.61L-457.40,199.68L-454.78,195.15L-450.83,183.69L-449.05,174.58L-447.95,164.11L-446.09,113.45L-443.44,95.25L-440.48,88.56L-436.15,83.23L-431.36,80.28L-426.90,79.90L-422.76,82.87L-415.60,94.72L-410.27,113.17L-398.46,180.25L-395.14,189.37L-391.07,195.47L-387.63,198.54L-384.27,199.30L-380.60,197.94L-377.03,194.45L-373.46,187.78L-370.58,178.03L-367.42,159.83" />
        <path d="M-367.42,159.83L-365.53,132.11L-365.88,120.60L-367.30,111.99L-369.84,103.63L-373.11,96.39L-379.60,88.01L-381.77,87.42L-385.83,98.76L-387.48,107.38L-387.92,113.79L-387.31,120.26L-385.08,129.04L-377.54,146.94L-372.71,154.26L-367.42,159.83" />
        <path d="M-367.42,159.83L-363.72,162.74L-358.20,165.21L-352.22,165.75L-346.34,163.98L-340.46,160.39L-334.48,156.14L-328.85,150.05L-320.00,134.52L-317.21,125.99" />
      </g>
      <g id="f9" style="--index:9; opacity:0;" class="frame">
        <path d="M-481.41,209.55L-482.47,206.19L-482.46,202.88L-480.53,153.81" />
        <path d="M-480.53,153.81L-478.74,127.29L-465.79,47.26L-463.87,22.03L-465.56,6.10L-467.07,-1.40L-469.63,-7.94L-480.18,-21.10L-483.71,-23.30L-487.69,-23.83L-491.96,-23.43L-495.59,-21.65L-501.20,-14.17L-503.21,-9.07L-505.10,20.04L-503.22,42.42L-496.91,79.16L-480.53,153.81" />
        <path d="M-480.53,153.81L-475.75,167.22L-465.10,185.88L-454.60,196.73L-450.61,198.70L-449.38,176.80L-449.99,146.17L-448.97,125.03L-444.51,100.58L-442.63,93.97L-440.00,90.51L-436.88,89.07L-422.73,89.94L-418.73,91.47L-414.55,94.82L-410.94,101.59L-408.64,109.92L-400.52,167.42L-394.95,184.45L-392.14,190.80L-389.33,194.22L-386.75,195.33L-384.29,194.98L-381.76,192.15L-379.23,186.94L-372.59,162.51L-369.94,146.01" />
        <path d="M-369.94,146.01L-369.37,123.58L-370.24,105.68L-372.00,97.93L-379.92,81.99L-381.52,81.12L-385.95,90.38L-387.75,96.68L-388.36,104.22L-387.92,112.29L-382.44,130.13L-378.27,136.92L-369.94,146.01" />
        <path d="M-369.94,146.01L-363.67,150.18L-358.37,151.94L-347.15,152.89L-341.62,150.30L-335.72,145.02L-324.75,131.33L-320.39,123.19" />
        <path d="M-320.39,123.19L-315.64,114.07L-311.54,101.67L-309.10,89.09L-307.22,58.79L-308.79,44.36L-311.37,30.69L-314.36,17.71L-320.91,-3.30L-324.46,-11.62L-328.26,-18.14L-332.41,-22.18L-335.49,-23.30L-337.87,-21.89L-339.43,-15.39L-340.56,10.25L-339.90,23.52L-336.36,48.02L-325.77,106.30L-323.34,116.14L-320.39,123.19" />
        <path d="M-320.39,123.19L-314.43,131.11L-307.76,134.44L-301.48,135.37L-294.41,135.09L-287.66,131.92L-272.39,115.52L-268.03,109.31L-263.12,97.91" />
      </g>
      <g id="f10" style="--index:10; opacity:0;" class="frame">
        <path d="M-481.26,204.24L-482.11,200.33L-481.64,196.42L-475.60,155.72L-472.57,140.60" />
        <path d="M-472.57,140.60L-461.12,66.69L-459.30,39.45L-460.01,15.80L-461.78,7.05L-465.08,-1.20L-469.64,-7.69L-483.70,-22.05L-487.14,-23.75L-490.67,-22.58L-493.54,-18.07L-495.75,-12.59L-497.31,-6.22L-497.28,8.78L-485.02,100.99L-479.08,124.65L-472.57,140.60" />
        <path d="M-472.57,140.60L-462.81,168.72L-458.33,175.65L-449.28,186.94L-443.67,192.03L-440.94,192.70L-439.68,187.56L-439.45,180.07L-441.80,150.62L-442.56,128.90L-441.95,108.43L-440.61,99.80L-438.62,93.75L-435.57,90.44L-432.08,89.26L-423.94,89.02L-419.03,89.77L-414.25,93.51L-410.69,101.53L-407.77,122.83L-404.61,166.38L-402.81,174.89L-399.84,181.63L-395.91,186.97L-391.98,190.12L-388.35,191.51L-384.80,191.84L-381.24,190.36L-377.59,186.49L-370.80,174.39L-368.20,166.93L-366.50,158.38L-365.49,143.98" />
        <path d="M-365.49,143.98L-365.30,139.18L-367.24,118.42L-370.45,101.54L-372.29,94.61L-376.51,83.88L-378.24,80.44L-379.52,79.70L-381.74,90.17L-381.52,106.49L-379.59,114.75L-376.37,123.49L-372.35,132.40L-365.49,143.98" />
        <path d="M-365.49,143.98L-362.60,148.21L-356.20,152.59L-350.08,154.08L-344.96,154.28L-339.82,152.43L-334.48,148.39L-326.41,135.33L-319.51,113.34" />
        <path d="M-319.51,113.34L-313.87,89.65L-312.02,77.72L-310.29,50.80L-311.01,35.64L-312.90,20.07L-315.66,6.22L-319.14,-5.22L-327.65,-20.93L-333.19,-27.89L-334.88,-28.02L-336.67,-23.66L-338.61,1.95L-338.63,15.00L-337.54,28.92L-333.27,57.14L-329.77,74.34L-326.22,90.67L-319.51,113.34" />
        <path d="M-319.51,113.34L-312.13,129.58L-307.50,136.14L-301.99,140.54L-295.53,143.16L-289.44,143.71L-284.02,141.18L-273.33,131.48L-263.78,118.66L-258.20,106.00" />
        <path d="M-258.20,106.00L-251.66,83.90L-246.89,59.53L-245.12,32.11L-247.42,1.34L-250.02,-12.26L-256.46,-36.07L-268.18,-62.21L-271.73,-67.28L-275.13,-69.86L-278.55,-70.18L-282.15,-67.51L-286.20,-62.92L-289.45,-56.67L-290.76,-48.66L-291.08,-39.17L-290.15,-26.15L-285.53,4.47L-282.14,20.03L-270.51,57.79L-264.28,91.78L-262.20,99.48L-258.20,106.00" />
      </g>
      <g id="f11" style="--index:11; opacity:0;" class="frame">
        <path d="M-477.41,195.46L-479.75,194.36L-480.61,190.83L-479.89,174.31L-473.47,147.56L-470.18,128.84" />
        <path d="M-470.18,128.84L-465.47,83.52L-463.02,27.25L-463.37,10.74L-466.52,-1.19L-469.82,-6.27L-480.67,-17.81L-484.11,-19.51L-487.73,-19.40L-495.01,-13.93L-497.70,-10.67L-499.28,-6.98L-501.10,4.33L-500.91,20.32L-496.90,43.60L-470.18,128.84" />
        <path d="M-470.18,128.84L-464.02,154.80L-459.21,169.23L-448.69,183.09L-444.38,186.25L-441.54,185.86L-440.94,178.39L-443.34,153.12L-444.23,133.15L-443.97,102.60L-442.05,95.12L-439.51,90.85L-436.03,88.10L-431.91,86.52L-427.59,86.31L-423.09,87.99L-418.85,91.15L-414.90,95.81L-411.99,102.85L-408.79,116.79L-406.41,146.87L-405.29,155.24L-403.28,162.69L-400.34,169.36L-396.64,173.56L-392.64,176.60L-385.76,179.74L-382.44,179.50L-379.09,177.07L-375.61,172.65L-372.35,165.83L-366.58,151.25L-363.00,139.03" />
        <path d="M-363.00,139.03L-360.98,127.54L-360.57,118.99L-362.62,104.22L-364.69,96.53L-369.63,86.95L-371.79,84.68L-376.03,84.52L-377.49,86.78L-378.26,95.25L-376.84,108.42L-368.28,129.25L-363.00,139.03" />
        <path d="M-363.00,139.03L-361.11,142.28L-357.27,146.30L-352.74,148.73L-348.29,149.97L-339.24,150.39L-333.62,148.99L-328.77,146.04L-324.41,141.72L-320.78,136.68L-317.56,129.67L-314.96,121.11" />
        <path d="M-314.96,121.11L-312.57,110.88L-311.32,99.56L-308.44,59.56L-307.87,46.46L-308.34,33.00L-310.17,19.19L-316.16,-4.73L-319.25,-13.85L-322.33,-21.10L-332.20,-32.54L-333.28,-31.96L-334.80,-26.59L-338.46,-3.54L-339.14,20.23L-337.75,34.40L-332.48,68.73L-321.40,106.40L-318.15,115.66L-314.96,121.11" />
        <path d="M-314.96,121.11L-307.25,131.34L-301.53,135.18L-294.93,137.13L-288.82,137.74L-283.74,137.19L-278.23,133.79L-271.88,127.97L-260.96,114.09L-257.89,107.52" />
        <path d="M-257.89,107.52L-251.00,91.18L-247.46,77.13L-245.28,61.34L-244.31,44.70L-244.90,26.37L-247.33,6.96L-251.30,-9.75L-259.69,-36.20L-268.72,-54.61L-272.66,-60.89L-275.65,-63.07L-278.79,-62.51L-282.55,-57.28L-288.70,-42.46L-289.45,-32.68L-285.83,8.52L-281.65,34.42L-267.31,87.84L-264.69,95.76L-257.89,107.52" />
        <path d="M-257.89,107.52L-250.37,116.32L-246.67,119.15L-243.10,120.54L-235.31,121.16L-231.16,120.26L-224.51,116.52L-219.39,108.73L-211.09,91.55L-208.92,79.26L-206.85,59.98L-204.42,50.45L-202.58,46.53L-193.83,37.11L-177.36,23.14L-173.15,22.56L-171.00,23.76L-165.92,27.83L-165.13,30.06" />
      </g>
      <g id="f12" transform="translate(-221.75 60.50)" style="--index:12; opacity:0;" class="frame">
        <path d="M-256.83,129.28L-258.16,126.83L-257.55,123.58L-245.28,71.30L-243.12,56.27" />
        <path d="M-243.12,56.27L-240.10,21.73L-239.24,-21.20L-239.77,-37.72L-243.81,-51.86L-247.21,-58.76L-258.94,-74.02L-261.67,-75.28L-264.39,-75.21L-266.85,-73.35L-268.97,-70.10L-270.03,-65.92L-270.03,-53.58L-269.03,-45.62L-261.67,-8.73L-250.66,38.32L-243.12,56.27" />
        <path d="M-243.12,56.27L-237.31,70.36L-233.94,82.91L-227.16,98.70L-220.86,108.45L-211.44,118.21L-211.31,112.56L-217.41,78.93L-218.41,62.00L-218.27,48.27L-216.08,38.12L-213.30,33.87L-209.31,30.49L-204.53,30.62L-199.16,35.46L-195.91,40.51L-193.06,50.13L-191.94,65.79L-188.94,83.04L-187.10,88.08L-182.38,96.18L-174.08,104.47L-171.24,106.00L-164.60,106.86L-157.36,106.47L-151.86,104.73L-147.74,100.69L-140.59,83.89" />
        <path d="M-140.59,83.89L-136.80,64.52L-136.60,49.66L-137.72,42.96L-141.38,29.55L-143.36,25.11L-147.74,20.87L-152.99,19.34L-155.38,23.45L-156.24,27.30L-156.70,36.73L-155.64,46.15L-150.60,64.79L-143.24,80.85L-140.59,83.89" />
        <path d="M-140.59,83.89L-130.03,90.07L-119.34,94.06L-114.24,94.25L-110.31,92.13L-107.06,88.15L-103.81,81.97L-97.84,63.33L-95.52,49.74" />
        <path d="M-95.52,49.74L-92.47,23.79L-91.74,8.19L-92.47,-22.47L-94.99,-53.71L-96.72,-65.26L-100.77,-82.11L-103.02,-86.09L-105.81,-88.22L-112.91,-88.88L-116.36,-87.42L-119.02,-85.23L-120.94,-80.98L-122.80,-64.72L-122.72,-55.64L-121.06,-45.42L-111.99,-7.73L-107.00,17.68L-100.50,39.57L-95.52,49.74" />
        <path d="M-95.52,49.74L-90.88,58.49L-85.44,65.39L-79.06,70.36L-71.50,74.34L-64.88,76.34L-59.03,76.74L-53.25,75.74L-48.14,71.95L-39.66,62.60L-36.00,55.90L-30.42,40.87" />
        <path d="M-30.42,40.87L-27.52,24.91L-25.92,-3.35L-26.19,-19.41L-28.64,-49.79L-31.63,-81.65L-35.61,-106.27L-39.92,-118.86L-42.38,-122.59L-45.56,-123.97L-49.61,-123.38L-53.92,-119.93L-57.56,-114.62L-59.56,-109.24L-60.75,-95.51L-59.83,-70.30L-54.31,-42.96L-39.59,20.13L-35.73,30.55L-30.42,40.87" />
        <path d="M-30.42,40.87L-21.34,52.11L-16.17,57.02L-10.00,59.88L0.42,60.68L4.47,58.56L8.19,55.24L11.11,51.59L14.63,43.03L15.34,36.98L15.34,5.20L16.14,-0.63L21.25,-15.76L24.31,-20.53L28.09,-23.99L43.81,-32.68L48.86,-33.34L53.97,-32.29L58.81,-28.90L66.24,-20.13L69.36,-14.44L70.69,-7.00L70.67,5.31" />
        <path d="M70.67,5.31L68.30,21.67L63.39,35.53L60.00,40.24L56.48,43.09L49.52,44.82L46.20,44.82L42.48,43.63L38.58,40.97L35.19,36.53L33.00,30.49L32.41,19.88L36.58,-1.29L38.44,-7.14L40.83,-11.65L43.75,-15.09L49.98,-19.21L52.91,-20.00L55.56,-19.61L57.81,-16.96L59.20,-13.04L60.59,-1.03L62.39,1.89L65.31,4.15L70.67,5.31" />
        <path d="M70.67,5.31L75.13,5.14L80.44,2.68L86.14,-1.76L92.66,-10.45L98.75,-21.07L117.66,-81.45" />
      </g>
      <g id="f13" style="--index:13; opacity:0;" class="frame">
        <path d="M-481.20,194.64L-482.07,190.69L-480.24,177.23L-470.80,132.54" />
        <path d="M-470.80,132.54L-468.47,112.47L-468.45,71.47L-468.99,54.91L-473.44,14.10L-476.87,1.48L-482.76,-8.49L-486.36,-11.30L-489.86,-12.13L-493.07,-11.85L-496.08,-10.17L-498.86,-6.74L-500.91,-1.81L-502.03,3.72L-502.20,15.13L-500.37,29.85L-470.80,132.54" />
        <path d="M-470.80,132.54L-460.54,156.03L-455.97,168.71L-451.65,184.87L-448.96,189.94L-448.38,189.38L-452.23,149.07L-450.02,113.60L-447.95,99.21L-446.12,94.98L-443.96,92.64L-441.27,91.22L-435.02,89.99L-431.96,90.99L-426.74,94.70L-424.49,98.68L-414.00,126.04L-405.35,158.50L-402.17,166.02L-398.07,172.02L-395.26,173.78L-388.36,174.48L-381.84,173.11L-378.75,171.19L-372.28,165.96L-367.39,159.92L-365.29,156.74L-362.40,148.63" />
        <path d="M-362.40,148.63L-360.62,135.58L-362.81,108.20L-365.63,95.35L-369.23,84.91L-370.94,82.13L-372.80,80.79L-374.40,80.73L-375.71,81.84L-377.65,86.02L-378.73,92.17L-376.60,122.18L-371.29,137.96L-369.31,141.16L-362.40,148.63" />
        <path d="M-362.40,148.63L-354.98,154.07L-349.33,156.94L-339.37,156.30L-332.93,153.12L-328.32,147.11L-326.56,142.32L-323.54,131.47L-319.57,110.96" />
        <path d="M-319.57,110.96L-316.81,92.45L-315.60,76.84L-315.20,53.57L-316.35,36.61L-320.24,19.09L-324.34,-7.47L-326.48,-14.88L-331.26,-25.70L-333.75,-27.78L-337.91,-28.31L-339.35,-27.86L-340.51,-26.04L-341.37,-21.23L-343.26,2.09L-340.34,55.41L-339.16,61.83L-334.80,74.47L-319.57,110.96" />
        <path d="M-319.57,110.96L-310.65,128.35L-308.40,131.36L-305.87,133.20L-297.72,136.55L-282.43,135.18L-279.42,134.18L-274.19,130.85L-268.71,126.06L-266.40,123.02L-260.86,110.83L-256.42,97.37" />
        <path d="M-256.42,97.37L-252.86,84.99L-247.71,44.09L-247.59,15.85L-249.80,-12.73L-252.21,-30.86L-258.43,-50.53L-260.57,-55.20L-265.96,-63.07L-269.16,-65.35L-272.49,-65.63L-275.55,-64.90L-279.21,-61.85L-281.92,-54.05L-283.23,-35.69L-286.87,-10.21L-286.15,11.92L-285.00,22.34L-280.49,38.20L-271.63,57.99L-265.84,74.69L-256.42,97.37" />
        <path d="M-256.42,97.37L-252.69,105.13L-246.08,115.48L-240.79,121.42L-236.25,122.93L-230.64,123.20L-226.21,122.05L-222.51,119.84L-219.64,115.78L-217.80,110.46L-217.08,96.72L-213.79,78.11L-206.38,59.85L-202.13,52.06L-198.00,47.47L-188.87,32.46L-179.25,25.41L-174.59,25.26L-164.36,29.94L-159.80,33.33L-156.53,37.94L-155.02,43.59L-153.92,54.63L-155.45,66.86" />
        <path d="M-155.45,66.86L-157.05,76.42L-158.80,80.82L-170.84,98.36L-175.53,101.53L-183.60,104.94L-186.23,105.33L-188.30,100.31L-189.65,85.26L-187.27,68.33L-182.21,51.97L-180.22,48.62L-172.74,42.32L-167.80,41.12L-166.02,42.36L-161.55,48.09L-161.23,63.08L-159.36,65.23L-155.45,66.86" />
        <path d="M-155.45,66.86L-150.71,66.25L-145.38,63.93L-142.66,62.16L-138.88,58.01L-133.08,45.49L-128.36,38.86L-118.83,18.50L-114.73,6.57L-111.69,0.28L-109.37,-7.94L-106.49,-14.10L-95.80,-31.73L-86.79,-39.12L-80.37,-42.41L-81.87,-42.71" />
      </g>
      <g id="f14" style="--index:14; opacity:0;" class="frame">
        <path d="M-479.97,196.50L-481.59,197.98L-482.08,193.76L-480.33,173.08L-473.48,129.70" />
        <path d="M-473.48,129.70L-470.10,106.71L-469.02,86.62L-468.23,43.73L-468.47,34.41L-470.61,15.62L-475.53,-0.26L-478.47,-6.61L-481.87,-10.87L-485.65,-12.68L-493.35,-12.85L-496.16,-10.90L-498.70,-6.36L-502.49,7.01L-502.86,14.79L-502.09,23.82L-500.69,32.21L-486.95,88.27L-473.48,129.70" />
        <path d="M-473.48,129.70L-465.85,163.99L-463.16,172.93L-460.04,181.37L-454.40,192.34L-452.30,195.99L-449.55,198.43L-448.70,198.34L-448.32,196.48L-449.11,186.83L-454.08,162.82L-457.33,129.17L-455.83,113.58L-453.30,108.42L-450.37,104.93L-447.21,102.94L-440.30,100.00L-435.85,98.91L-431.90,99.18L-428.19,102.43L-425.16,106.89L-420.74,116.62L-414.86,142.70L-409.07,160.43L-401.71,172.63L-399.02,175.37L-395.61,176.94L-387.75,177.48L-384.38,177.13L-377.87,173.55L-374.48,170.57L-371.38,165.86L-367.01,154.88L-366.33,150.51" />
        <path d="M-366.33,150.51L-363.25,123.56L-363.97,109.58L-365.92,103.46L-371.91,91.45L-373.79,89.72L-377.42,88.79L-378.91,89.29L-380.15,91.58L-381.62,99.82L-380.08,121.01L-373.56,138.54L-366.33,150.51" />
        <path d="M-366.33,150.51L-362.84,154.04L-359.05,156.48L-347.55,161.31L-339.53,160.25L-335.66,158.01L-332.31,155.16L-329.40,150.98L-327.04,145.27L-322.88,132.71L-320.70,119.74" />
        <path d="M-320.70,119.74L-318.60,91.67L-322.41,53.64L-327.73,17.20L-331.30,-0.13L-335.68,-14.64L-338.61,-19.81L-341.83,-22.25L-345.00,-22.67L-347.94,-21.84L-351.19,-17.01L-352.30,-7.10L-351.14,9.52L-342.19,60.50L-337.73,80.29L-332.48,97.22L-325.55,111.64L-320.70,119.74" />
        <path d="M-320.70,119.74L-315.43,127.89L-311.69,131.47L-307.77,133.57L-298.96,136.06L-290.06,135.81L-274.81,130.79L-269.11,128.09L-264.40,124.18L-254.82,108.66" />
        <path d="M-254.82,108.66L-251.18,97.80L-247.46,68.77L-244.58,24.01L-244.97,-11.18L-247.44,-30.34L-254.95,-53.74L-259.96,-62.39L-262.79,-65.51L-265.49,-66.76L-268.11,-66.71L-271.12,-65.60L-274.21,-63.05L-276.90,-59.41L-280.92,-51.08L-282.26,-45.42L-283.40,-32.43L-282.35,-7.26L-278.66,21.44L-259.59,95.72L-254.82,108.66" />
        <path d="M-254.82,108.66L-245.52,122.48L-240.51,126.80L-237.76,127.48L-231.37,127.15L-225.68,123.19L-213.23,107.31L-209.80,99.89L-206.46,86.11L-201.29,57.89L-198.50,48.66L-191.87,38.06L-184.87,31.01L-176.12,24.34L-172.17,23.87L-165.83,25.83L-161.39,31.68L-158.94,37.17L-156.91,45.66L-155.42,57.69L-155.58,63.75" />
        <path d="M-155.58,63.75L-158.25,75.18L-160.23,80.23L-170.26,95.91L-175.16,101.21L-177.74,102.68L-184.09,103.45L-185.81,102.78L-188.38,98.95L-189.51,90.36L-188.53,73.69L-185.24,62.13L-178.45,48.78L-176.02,45.85L-171.12,42.60L-166.19,41.91L-164.04,42.88L-160.93,45.97L-158.26,61.01L-155.58,63.75" />
        <path d="M-155.58,63.75L-151.36,64.90L-142.73,63.65L-138.94,61.20L-134.21,55.30L-126.20,40.00L-120.87,25.09L-112.95,8.32L-104.18,-13.32L-94.67,-26.33L-89.43,-31.67L-62.55,-52.25L-46.54,-59.11L-32.46,-67.14L-25.34,-70.27L-17.55,-75.25L-9.79,-77.31L2.65,-83.00" />
      </g>
      <g id="f15" style="--index:15; opacity:0;" class="frame">
        <path d="M-483.25,201.68L-485.86,189.32L-486.83,177.24L-483.98,152.40L-477.26,115.95" />
        <path d="M-477.26,115.95L-472.75,92.36L-469.25,53.51L-468.75,38.26L-469.53,22.12L-470.76,13.59L-473.23,6.45L-479.53,-3.14L-487.71,-10.08L-491.94,-12.48L-495.70,-13.51L-499.20,-12.63L-502.39,-8.93L-504.53,-2.74L-505.41,4.02L-504.27,19.27L-499.77,38.78L-480.35,102.83L-477.26,115.95" />
        <path d="M-477.26,115.95L-472.89,135.98L-461.99,177.02L-453.95,197.70L-450.02,203.20L-450.16,195.82L-457.06,164.84L-459.96,139.40L-459.68,123.03L-458.48,116.02L-456.21,112.08L-453.47,109.98L-447.85,108.25L-440.70,109.21L-436.28,111.02L-432.27,114.64L-426.67,125.61L-421.38,145.72L-414.36,165.36L-408.05,176.15L-404.90,180.14L-397.58,186.38L-393.31,187.97L-388.78,187.84L-384.60,186.43L-380.87,183.43L-373.31,174.72L-370.37,167.92L-367.72,156.07" />
        <path d="M-367.72,156.07L-366.22,134.86L-367.84,110.72L-369.57,103.91L-373.95,93.09L-376.14,90.25L-378.29,89.17L-380.50,89.29L-383.13,90.81L-385.59,93.91L-387.25,98.81L-387.65,104.78L-386.32,120.12L-384.64,126.94L-378.99,140.65L-367.72,156.07" />
        <path d="M-367.72,156.07L-364.67,158.27L-360.78,159.57L-351.78,161.19L-347.87,160.95L-344.05,158.89L-334.98,150.94L-323.72,130.51" />
        <path d="M-323.72,130.51L-318.42,110.77L-316.17,89.94L-316.56,56.79L-319.05,23.91L-323.29,4.72L-329.31,-12.58L-336.56,-24.17L-340.64,-26.65L-344.55,-26.98L-347.68,-25.85L-349.85,-22.16L-352.61,-9.51L-352.86,-0.43L-350.61,24.72L-335.16,102.57L-331.99,114.25L-328.96,122.08L-323.72,130.51" />
        <path d="M-323.72,130.51L-316.87,137.43L-313.08,139.36L-308.92,139.44L-304.42,137.89L-295.82,131.24L-286.12,122.31L-276.89,111.65L-271.87,104.64L-264.33,90.33" />
        <path d="M-264.33,90.33L-255.87,68.35L-253.06,56.50L-248.01,16.69L-246.70,-10.89L-249.09,-35.30L-254.83,-53.13L-260.93,-65.07L-264.44,-68.69L-268.43,-69.75L-272.84,-68.50L-276.68,-64.33L-282.33,-53.15L-284.73,-46.64L-286.62,-37.61L-287.71,-27.37L-285.92,-2.16L-283.70,9.78L-274.73,43.17L-269.98,67.32L-264.33,90.33" />
        <path d="M-264.33,90.33L-261.14,99.99L-258.12,105.99L-254.39,110.60L-245.96,117.63L-242.10,119.79L-234.27,121.13L-230.23,120.65L-226.76,118.46L-214.67,102.34L-208.27,85.10L-198.29,63.05L-194.19,46.33L-190.16,34.80L-187.62,30.79L-180.13,22.37L-177.52,20.22L-174.54,19.34L-170.91,19.18L-167.33,20.23L-164.50,22.10L-159.76,27.18L-157.98,31.09L-155.38,41.80L-154.47,53.15L-157.22,71.53" />
        <path d="M-157.22,71.53L-160.42,81.10L-171.84,93.23L-176.07,95.32L-177.77,95.33L-181.26,90.86L-182.84,86.64L-184.13,76.47L-183.77,70.23L-181.44,58.71L-179.36,53.09L-176.94,49.59L-171.97,45.88L-169.29,44.80L-164.84,44.91L-163.23,46.22L-160.68,54.83L-159.11,69.80L-157.22,71.53" />
        <path d="M-157.22,71.53L-150.67,71.48L-147.16,70.26L-140.65,65.02L-131.97,54.89L-124.61,42.10L-120.13,26.66L-115.83,18.36L-110.34,3.95L-104.69,-7.86L-100.29,-14.70L-90.43,-26.55L-84.64,-32.17L-68.41,-43.50L-50.00,-54.65L-8.78,-78.61L9.65,-87.32L24.85,-96.04L45.27,-104.32L55.48,-106.25L72.17,-112.27" />
        <path d="M72.17,-112.27L74.05,-112.13L72.17,-112.27" />
        <path d="M72.17,-112.27L70.95,-112.37" />
      </g>
      <g id="f16" style="--index:16; opacity:0;" class="frame">
        <path d="M-479.12,120.56L-471.94,89.26L-470.27,75.25L-469.11,43.48L-470.15,30.89L-474.40,10.95L-477.76,2.32L-485.56,-5.86L-491.11,-9.43L-493.37,-9.77L-495.61,-9.30L-500.16,-3.93L-504.91,7.78L-505.85,12.37L-505.08,26.75L-503.60,36.05L-493.70,73.33L-479.12,120.56" />
        <path d="M-479.12,120.56L-473.72,138.40L-463.67,165.36L-456.84,187.02L-450.82,200.95L-456.51,180.95L-460.18,164.36L-463.88,137.82L-463.67,121.93L-462.84,115.11L-461.42,110.30L-459.28,107.23L-456.41,106.41L-452.97,107.76L-446.07,112.79L-442.50,116.40L-435.72,127.87L-423.83,156.97L-415.22,172.86L-407.87,181.08L-396.84,189.66L-392.67,190.36L-388.18,189.71L-384.43,187.55L-373.86,178.65L-371.18,174.95L-369.25,169.40L-368.21,160.32" />
        <path d="M-368.21,160.32L-368.12,149.29L-369.19,136.26L-371.36,122.08L-373.31,115.00L-379.23,98.77L-383.90,94.31L-387.78,93.75L-390.18,106.13L-388.32,124.95L-382.55,139.31L-378.72,146.42L-372.22,156.84L-368.21,160.32" />
        <path d="M-368.21,160.32L-362.22,163.70L-352.87,166.48L-345.00,166.56L-341.24,164.47L-337.32,161.21L-331.07,152.92L-328.75,147.33L-323.50,123.47" />
        <path d="M-323.50,123.47L-321.05,99.27L-320.23,59.21L-321.41,40.49L-323.33,29.20L-328.19,7.34L-331.36,-3.37L-334.79,-11.04L-342.70,-23.53L-345.93,-26.61L-348.91,-27.95L-352.19,-27.77L-355.36,-25.39L-358.14,-19.24L-359.75,-10.70L-359.89,-1.86L-357.49,21.63L-347.95,62.59L-336.99,98.67L-332.94,108.55L-328.09,117.31L-323.50,123.47" />
        <path d="M-323.50,123.47L-318.06,130.38L-314.07,133.78L-310.16,135.81L-306.17,136.93L-301.66,136.92L-297.06,135.29L-288.18,129.24L-283.63,124.89L-270.77,109.60L-266.47,102.93L-259.68,87.78" />
        <path d="M-259.68,87.78L-254.28,67.79L-251.04,45.98L-250.27,35.48L-250.43,0.20L-251.85,-22.07L-253.54,-31.64L-255.95,-39.35L-265.38,-60.90L-268.68,-65.75L-272.52,-68.13L-276.22,-68.14L-279.54,-66.13L-282.32,-62.20L-285.98,-51.51L-287.42,-31.66L-285.53,-6.65L-283.81,6.04L-273.03,42.02L-264.53,73.70L-259.68,87.78" />
        <path d="M-259.68,87.78L-252.09,102.16L-246.57,110.29L-239.18,116.70L-232.73,116.87L-229.67,115.12L-227.10,112.35L-221.87,104.68L-210.26,82.01L-197.32,49.62L-187.71,35.87L-180.85,28.54L-178.39,27.08L-176.14,26.79L-166.61,29.21L-163.54,30.76L-161.03,33.63L-159.22,37.82L-157.37,50.43" />
        <path d="M-157.37,50.43L-156.72,60.50L-157.43,66.22L-161.74,81.01L-165.52,87.27L-168.52,91.80L-171.34,94.31L-174.42,95.32L-178.08,95.70L-181.97,94.92L-184.98,93.30L-186.93,90.60L-187.93,86.90L-188.32,76.23L-186.72,69.69L-177.43,52.99L-173.85,48.64L-170.17,46.32L-166.73,45.45L-163.77,45.42L-161.32,46.58L-157.37,50.43" />
        <path d="M-157.37,50.43L-155.56,54.69L-153.77,65.26L-151.31,68.59L-148.92,69.20L-143.07,68.52L-129.96,57.29L-126.35,52.59L-118.16,36.25L-108.03,9.11L-105.41,4.17L-94.85,-10.15L-90.86,-15.52L-72.30,-33.35L-61.08,-41.41L-50.26,-50.58L-27.40,-62.88L-4.91,-76.34L45.67,-101.12L61.76,-107.25L72.12,-112.10L82.05,-115.70L87.97,-116.78L92.36,-118.89" />
      </g>
      <g id="f17" style="--index:17; opacity:0;" class="frame">
        <path d="M-368.17,168.34L-368.53,149.68L-372.86,120.31L-376.25,107.62L-379.88,97.87L-382.17,92.93L-384.74,89.56L-386.98,88.88L-388.88,90.34L-392.95,99.86L-392.80,108.79L-390.46,123.57L-385.20,143.23L-380.44,155.54L-374.04,163.87L-368.17,168.34" />
        <path d="M-368.17,168.34L-363.74,170.30L-355.44,170.85L-351.40,169.80L-340.98,163.18L-332.08,154.17L-324.05,137.89" />
        <path d="M-324.05,137.89L-322.29,134.06L-320.40,121.12L-319.71,89.79L-321.88,44.13L-323.48,26.72L-327.99,-1.05L-329.96,-7.91L-336.06,-18.25L-340.00,-22.74L-343.80,-25.87L-346.89,-27.02L-349.50,-26.97L-351.70,-25.72L-355.69,-17.10L-357.97,-7.30L-357.97,-0.92L-353.41,42.55L-347.90,79.99L-344.83,92.88L-337.08,113.53L-324.05,137.89" />
        <path d="M-324.05,137.89L-317.32,147.33L-313.73,150.08L-309.87,150.98L-305.64,150.60L-300.76,148.32L-296.49,144.40L-282.93,127.72L-269.26,106.13L-267.18,101.40" />
        <path d="M-267.18,101.40L-261.15,87.35L-253.63,66.23L-251.18,55.51L-249.39,43.19L-247.23,17.12L-246.46,-8.64L-249.20,-41.71L-251.08,-53.18L-253.84,-63.20L-257.29,-70.58L-261.17,-74.45L-265.54,-76.43L-270.04,-77.05L-274.76,-76.43L-278.92,-73.27L-282.45,-68.34L-289.50,-48.81L-291.91,-35.81L-292.78,-23.08L-288.81,16.98L-281.53,59.19L-278.65,71.42L-272.08,90.15L-267.18,101.40" />
        <path d="M-267.18,101.40L-262.90,110.30L-257.31,114.78L-254.29,115.95L-245.12,116.92L-242.27,116.56L-239.41,114.50L-229.68,105.80L-226.85,101.23L-214.89,76.29L-205.33,60.60L-194.75,38.77L-192.01,35.68L-177.06,24.61L-173.86,23.65L-170.12,23.42L-166.36,24.45L-161.20,28.19L-159.23,31.73L-157.16,42.78L-156.53,55.25L-157.21,61.86L-159.71,71.08" />
        <path d="M-159.71,71.08L-164.35,81.06L-176.99,95.76L-181.14,97.97L-184.81,98.23L-188.01,96.01L-190.75,91.62L-192.48,86.46L-193.48,73.64L-192.27,67.82L-189.77,62.89L-181.54,53.43L-177.46,50.04L-173.55,48.20L-169.89,47.77L-166.76,50.01L-162.41,57.29L-159.71,71.08" />
        <path d="M-159.71,71.08L-159.03,73.21L-157.64,74.49L-154.61,74.12L-147.35,70.05L-138.73,61.63L-136.08,58.11L-128.39,42.90L-125.84,36.94L-121.66,23.01L-118.96,17.26L-104.96,-8.23L-100.02,-14.90L-77.12,-34.83L-55.10,-51.78L-32.41,-64.01L-16.20,-74.93L7.66,-85.75L31.98,-99.12L56.39,-109.08L87.19,-123.75" />
      </g>
      <g id="f18" style="--index:18; opacity:0;" class="frame">
        <path d="M-370.52,161.74L-365.30,165.80L-359.90,167.33L-357.47,167.25L-349.25,164.68L-342.02,159.70L-337.55,155.19L-335.65,151.63L-330.09,136.76L-329.01,131.69" />
        <path d="M-329.01,131.69L-326.09,113.06L-322.00,75.00L-321.43,46.31L-323.45,19.99L-329.97,-5.34L-332.35,-11.64L-335.22,-16.80L-338.67,-20.94L-346.58,-27.91L-349.38,-29.15L-350.57,-28.57L-351.74,-25.66L-352.73,-20.32L-353.67,-4.39L-351.77,31.04L-346.30,84.33L-345.20,92.69L-342.83,99.50L-335.93,116.95L-329.01,131.69" />
        <path d="M-329.01,131.69L-323.26,138.33L-310.43,147.23L-303.70,148.40L-296.72,147.72L-291.09,143.26L-281.30,130.74L-272.02,114.17" />
        <path d="M-272.02,114.17L-266.80,104.62L-261.63,92.13L-254.32,67.33L-250.98,49.22L-248.84,29.98L-246.87,11.84L-246.36,-5.46L-246.75,-34.63L-247.44,-41.84L-249.43,-48.75L-259.78,-72.59L-262.44,-75.68L-265.51,-77.35L-269.02,-77.60L-272.81,-76.92L-276.49,-75.05L-281.13,-70.41L-290.06,-46.48L-291.92,-28.92L-292.93,2.73L-291.77,22.93L-282.57,79.06L-280.95,92.96L-276.56,107.58L-272.02,114.17" />
        <path d="M-272.02,114.17L-266.84,118.85L-264.17,119.88L-255.75,120.43L-252.15,119.43L-248.73,117.30L-234.84,104.80L-228.62,96.92L-221.13,83.54L-208.76,53.84L-200.91,40.78L-191.22,30.65L-182.35,23.97L-178.99,22.42L-168.42,21.14L-165.73,22.46L-161.68,27.94L-156.65,43.30L-155.81,56.65L-156.86,62.98" />
        <path d="M-156.86,62.98L-161.64,76.57L-165.28,81.50L-177.72,91.00L-185.86,93.16L-188.43,92.01L-190.38,89.14L-191.72,85.07L-192.64,70.82L-190.95,64.67L-188.35,59.67L-180.50,50.98L-171.69,45.33L-166.88,43.41L-163.47,42.82L-160.77,44.14L-158.95,46.90L-156.86,62.98" />
        <path d="M-156.86,62.98L-155.23,67.12L-153.53,68.19L-148.29,67.59L-141.36,64.19L-134.06,57.38L-129.87,51.70L-115.52,25.66L-111.08,19.68L-103.59,5.85L-90.23,-14.96L-73.72,-33.37L-54.70,-52.34L-24.16,-74.26L11.49,-98.51L50.61,-120.26L77.88,-129.95" />
      </g>
      <g id="f19" style="--index:19; opacity:0;" class="frame">
        <path d="M-327.08,128.48L-319.90,108.02L-316.13,89.76L-314.71,74.41L-314.30,58.93L-315.75,42.98L-327.00,-10.61L-330.65,-23.21L-333.03,-27.45L-335.91,-29.82L-339.39,-31.06L-346.47,-31.73L-349.04,-31.29L-351.38,-29.17L-353.66,-25.40L-357.01,-10.70L-358.05,5.97L-355.70,37.55L-354.44,47.89L-350.25,66.29L-334.59,112.87L-327.08,128.48" />
        <path d="M-327.08,128.48L-323.37,135.78L-319.34,140.47L-312.67,145.01L-308.11,145.51L-305.35,144.70L-299.41,141.06L-289.05,132.46L-284.88,128.21L-276.50,116.07" />
        <path d="M-276.50,116.07L-268.62,105.72L-261.24,91.96L-254.58,74.07L-252.38,65.13L-248.46,34.78L-245.20,-9.68L-246.74,-37.87L-248.52,-47.19L-251.14,-55.40L-257.52,-68.39L-260.82,-72.77L-264.44,-76.32L-268.38,-78.64L-273.06,-79.23L-277.85,-77.64L-281.22,-73.99L-284.22,-69.46L-286.74,-62.59L-290.83,-44.07L-293.03,-9.05L-291.93,15.99L-291.88,40.30L-289.05,69.43L-283.13,97.17L-279.12,110.41L-276.50,116.07" />
        <path d="M-276.50,116.07L-273.85,119.87L-271.88,121.32L-266.95,122.16L-261.15,121.56L-253.86,117.21L-237.47,103.07L-233.15,98.13L-226.53,87.53L-214.53,64.07L-207.45,46.99L-202.01,37.93L-192.40,28.15L-180.36,19.66L-166.52,15.88L-162.31,20.73L-158.46,31.37L-156.34,47.94L-156.77,53.51L-159.48,62.67" />
        <path d="M-159.48,62.67L-167.54,76.67L-173.67,83.92L-184.80,89.18L-187.70,89.60L-189.95,88.41L-191.88,85.71L-193.10,81.58L-193.42,70.50L-190.24,57.93L-186.93,51.49L-182.71,47.75L-179.01,46.10L-171.41,45.36L-164.28,47.57L-162.04,50.54L-159.48,62.67" />
        <path d="M-159.48,62.67L-156.85,65.76L-150.37,65.70L-142.95,62.08L-135.16,54.88L-122.06,38.20L-110.88,18.23L-104.34,4.17L-90.19,-15.70L-72.65,-33.48L-59.29,-45.08L-52.15,-52.43L-20.76,-77.12L15.25,-101.23L43.60,-117.53L83.39,-137.02" />
      </g>
      <g id="f20" style="--index:20; opacity:0;" class="frame">
        <path d="M-326.59,131.16L-328.31,127.76L-327.45,121.46" />
        <path d="M-327.45,121.46L-323.24,134.29L-317.65,143.03L-312.68,148.03L-309.25,149.33L-302.27,148.02L-292.92,142.20L-282.87,131.01L-279.51,125.91" />
        <path d="M-279.51,125.91L-264.62,89.59L-256.93,66.87L-252.73,50.43L-245.20,0.67L-244.85,-17.63L-247.44,-46.17L-249.04,-54.25L-253.45,-65.98L-256.51,-70.66L-262.82,-76.14L-266.35,-77.71L-269.95,-77.85L-273.66,-76.32L-279.25,-70.89L-281.00,-68.09L-287.20,-45.29L-290.45,-29.12L-291.24,-19.71L-291.67,35.27L-288.21,92.69L-285.97,112.38L-282.92,120.82L-279.51,125.91" />
        <path d="M-279.51,125.91L-276.49,128.29L-274.05,128.83L-263.93,127.72L-253.08,119.29L-240.91,107.26L-232.89,96.28L-217.10,68.77L-210.54,50.56L-207.62,45.29L-196.13,31.00L-186.73,22.44L-180.67,18.39L-177.72,17.16L-172.06,16.91L-169.37,18.68L-162.41,28.48L-160.63,33.07L-158.57,44.02L-158.76,54.27" />
        <path d="M-158.76,54.27L-160.30,62.76L-162.49,68.51L-169.59,80.53L-173.54,84.70L-177.45,88.02L-181.71,90.33L-185.81,91.45L-189.30,91.76L-192.65,90.29L-195.60,87.64L-197.68,84.10L-198.55,73.15L-197.07,67.64L-192.04,55.44L-188.03,50.24L-183.68,47.23L-176.04,43.52L-168.63,43.08L-165.07,44.42L-162.64,46.39L-158.76,54.27" />
        <path d="M-158.76,54.27L-155.21,60.80L-153.41,62.26L-150.73,62.78L-143.21,61.70L-130.13,53.50L-125.29,48.67L-117.01,38.01L-101.70,8.62L-96.87,2.02L-76.01,-23.11L-70.51,-31.03L-50.06,-50.37L-24.15,-72.05L7.38,-93.69L47.02,-115.33L61.56,-122.65L74.75,-127.80" />
      </g>
      <g id="f21" style="--index:21; opacity:0;" class="frame">
        <path d="M-278.07,129.83L-271.45,131.92L-265.52,131.47L-259.62,126.93L-243.77,106.59L-231.40,86.61L-223.97,71.20L-201.67,38.53L-198.39,33.91L-181.19,16.11L-175.65,14.16L-168.70,14.69L-162.71,17.64L-157.79,23.73L-156.11,32.72L-156.66,44.22L-159.19,58.15L-161.13,63.04" />
        <path d="M-161.13,63.04L-169.75,78.49L-178.28,88.33L-182.98,91.79L-187.13,93.58L-190.39,93.92L-193.35,92.24L-195.97,89.05L-197.87,84.97L-198.79,74.65L-194.63,57.88L-192.09,51.12L-188.52,47.16L-184.32,44.79L-177.60,43.85L-169.13,46.95L-166.96,49.79L-163.14,60.61L-161.13,63.04" />
        <path d="M-161.13,63.04L-154.30,66.69L-147.20,65.54L-134.07,59.38L-124.10,51.33L-111.41,36.62L-97.37,10.33L-81.43,-12.92L-65.05,-32.63L-37.51,-58.29L-12.48,-76.92L16.50,-95.84L38.47,-107.76L60.77,-121.04L81.96,-130.09" />
      </g>
      <g id="f22" style="--index:22; opacity:0;" class="frame">
        <path d="M-164.39,62.29L-172.55,76.22L-176.48,81.59L-180.96,85.48L-189.14,90.09L-192.53,90.85L-195.54,90.93L-200.87,87.28L-202.44,83.86L-203.13,78.29L-202.42,71.50L-200.33,65.31L-194.46,52.96L-186.32,44.83L-182.24,42.40L-178.85,41.59L-175.92,41.91L-170.82,44.39L-168.96,46.48L-166.10,59.04L-164.39,62.29" />
        <path d="M-164.39,62.29L-159.17,65.43L-151.89,64.21L-138.06,57.18L-127.18,47.38L-116.74,34.62L-103.72,13.84L-91.83,-1.93L-84.04,-14.58L-52.20,-48.50L-28.97,-66.99L-21.05,-74.54L7.75,-95.72L44.24,-118.45L70.88,-131.54" />
      </g>
      <g id="f23" style="--index:23; opacity:0;" class="frame">
        <path d="M-162.56,66.64L-155.82,65.20L-150.75,65.91L-146.15,65.15L-140.95,63.75L-136.34,60.01L-113.02,32.58L-79.08,-12.83L-61.06,-34.70L-40.88,-55.14L-18.01,-74.80L-3.48,-83.95L11.96,-95.71L44.80,-114.24L65.79,-123.67L89.72,-131.59" />
      </g>
    </g>
  </g>
</svg>
